<?xml version="1.0" encoding="utf-8"?>
<!-- Generator: Adobe Illustrator 23.0.3, SVG Export Plug-In . SVG Version: 6.00 Build 0)  -->
<svg version="1.1" id="Layer_1" xmlns="http://www.w3.org/2000/svg" xmlns:xlink="http://www.w3.org/1999/xlink" x="0px" y="0px"
	 viewBox="0 0 17.8 17.8" style="enable-background:new 0 0 17.8 17.8;" xml:space="preserve">
<style type="text/css">
	.st0{fill:#000000;}
</style>
<g>
	<path class="st0" d="M0.4,15.3L15.3,0.4c0.6-0.6,1.5-0.6,2.1,0l0,0C18,1,18,2,17.4,2.6L2.6,17.4C2,18,1,18,0.4,17.4l0,0
		C-0.1,16.8-0.1,15.9,0.4,15.3z"/>
	<path class="st0" d="M2.6,0.4l14.8,14.8c0.6,0.6,0.6,1.5,0,2.1l0,0c-0.6,0.6-1.5,0.6-2.1,0L0.4,2.6C-0.1,2-0.1,1,0.4,0.4l0,0
		C1-0.1,2-0.1,2.6,0.4z"/>
</g>
</svg>
