<svg version="1.2" xmlns="http://www.w3.org/2000/svg" viewBox="0 0 32 32" width="32" height="32">
	<title>filter-icon-svg</title>
	<style>
		.s0 { fill: #000000 } 
	</style>
	<path id="Layer" fill-rule="evenodd" class="s0" d="m4.1 3c0.5-1.7 2-3 3.9-3 1.9 0 3.4 1.3 3.9 3h19.1c0.6 0 1 0.4 1 1 0 0.6-0.5 1-1 1h-19.1c-0.5 1.7-2 3-3.9 3-1.9 0-3.4-1.3-3.9-3h-3.1c-0.6 0-1-0.4-1-1 0-0.6 0.5-1 1-1zm16 12c0.4-1.7 2-3 3.9-3 1.8 0 3.4 1.3 3.8 3h3.2c0.5 0 1 0.4 1 1 0 0.6-0.5 1-1 1h-3.2c-0.4 1.7-2 3-3.8 3-1.9 0-3.5-1.3-3.9-3h-19.1c-0.6 0-1-0.4-1-1 0-0.6 0.4-1 1-1zm-8 12c0.4-1.7 2-3 3.8-3 1.9 0 3.5 1.3 3.9 3h11.1c0.6 0 1 0.4 1 1 0 0.6-0.4 1-1 1h-11.1c-0.4 1.7-2 3-3.9 3-1.8 0-3.4-1.3-3.8-3h-11.2c-0.5 0-1-0.4-1-1 0-0.6 0.5-1 1-1zm6.9 1c0-1.7-1.3-3-3-3-1.7 0-3 1.3-3 3 0 1.7 1.3 3 3 3 1.7 0 3-1.3 3-3zm8-12c0-1.7-1.3-3-3-3-1.7 0-3 1.3-3 3 0 1.7 1.3 3 3 3 1.7 0 3-1.3 3-3zm-16-12c0-1.7-1.3-3-3-3-1.7 0-3 1.3-3 3 0 1.7 1.3 3 3 3 1.7 0 3-1.3 3-3z"/>
</svg>