<svg xmlns="http://www.w3.org/2000/svg" version="1.1" xmlns:xlink="http://www.w3.org/1999/xlink" xmlns:svgjs="http://svgjs.com/svgjs" width="512" height="512" x="0" y="0" viewBox="0 0 512 512" style="enable-background:new 0 0 512 512" xml:space="preserve" class=""><g><path d="M511.536 53.543v423.42c0 19.348-15.699 35.037-35.047 35.037H173.044c-19.359 0-35.047-15.688-35.047-35.037V53.543c0-19.359 15.688-35.047 35.047-35.047h303.445c19.348 0 35.047 15.689 35.047 35.047z" style="" fill="#385f82" data-original="#385f82"></path><path d="M311.648 374.331c-23.245 23.245-54.148 36.044-87.016 36.044-24.283 0-47.486-6.991-67.328-20.006l-19.307 19.307V199.93c23.183-23.008 53.932-35.674 86.635-35.674 32.867 0 63.771 12.799 87.016 36.044 47.98 47.98 47.98 126.051 0 174.031zM414.604 18.495V71.79c0 6.813-5.523 12.337-12.337 12.337H247.255c-6.813 0-12.337-5.523-12.337-12.337V18.495h179.686z" style="" fill="#1f4c68" data-original="#1f4c68"></path><path d="M159.171 479.974V50.529c0-6.813 5.523-12.337 12.337-12.337h306.508c6.813 0 12.337 5.523 12.337 12.337v429.445c0 6.813-5.523 12.337-12.337 12.337H171.507c-6.813 0-12.336-5.523-12.336-12.337z" style="" fill="#1f4c68" data-original="#1f4c68"></path><path d="M476.993 57.74v415.026a6.18 6.18 0 0 1-6.181 6.181h-292.09a6.18 6.18 0 0 1-6.181-6.181V57.74a6.18 6.18 0 0 1 6.181-6.181h292.09a6.182 6.182 0 0 1 6.181 6.181z" style="" fill="#ddede5" data-original="#ddede5" class=""></path><path d="M311.648 374.331c-23.245 23.245-54.148 36.044-87.016 36.044-18.3 0-35.993-3.968-52.092-11.504V175.76c16.1-7.536 33.793-11.504 52.092-11.504 32.867 0 63.771 12.799 87.016 36.044 47.98 47.98 47.98 126.051 0 174.031zM414.604 51.558V71.79c0 6.816-5.521 12.337-12.337 12.337H247.255c-6.816 0-12.337-5.521-12.337-12.337V51.558h179.686z" style="" fill="#afc3c3" data-original="#afc3c3"></path><path d="M395.06 70.765H254.463a6.18 6.18 0 0 1-6.181-6.181V6.181A6.18 6.18 0 0 1 254.463 0H395.06a6.18 6.18 0 0 1 6.181 6.181v58.403a6.18 6.18 0 0 1-6.181 6.181z" style="" fill="#618baa" data-original="#618baa"></path><path d="M401.241 13.879h-152.96V6.181A6.18 6.18 0 0 1 254.462 0H395.06a6.18 6.18 0 0 1 6.181 6.181v7.698z" style="" fill="#89b4c9" data-original="#89b4c9"></path><circle cx="283.06" cy="35.38" r="10.795" style="" fill="#35696a" data-original="#35696a"></circle><path d="M373.08 43.109h-48.319a7.726 7.726 0 1 1 0-15.452h48.319a7.726 7.726 0 1 1 0 15.452zM421.677 251.645h-91.643a7.726 7.726 0 1 1 0-15.452h91.643a7.726 7.726 0 1 1 0 15.452zM421.677 275.582h-21.771a7.726 7.726 0 1 1 0-15.452h21.771a7.726 7.726 0 1 1 0 15.452zM374.705 275.582h-91.643a7.726 7.726 0 1 1 0-15.452h91.643a7.726 7.726 0 1 1 0 15.452zM421.677 321.211h-91.643a7.726 7.726 0 1 1 0-15.452h91.643a7.726 7.726 0 1 1 0 15.452zM421.677 345.148h-21.771a7.726 7.726 0 1 1 0-15.452h21.771a7.726 7.726 0 1 1 0 15.452zM374.705 345.148h-91.643a7.726 7.726 0 1 1 0-15.452h91.643a7.726 7.726 0 1 1 0 15.452z" style="" fill="#35696a" data-original="#35696a"></path><path d="M396.971 132.398H251.972a7.726 7.726 0 1 1 0-15.452h144.999a7.726 7.726 0 1 1 0 15.452zM353.304 154.479h-55.791a7.726 7.726 0 1 1 0-15.452h55.791a7.726 7.726 0 1 1 0 15.452z" style="" fill="#ff4f19" data-original="#ff4f19"></path><path d="M413.147 202.072H236.376a7.726 7.726 0 1 1 0-15.452h176.771a7.726 7.726 0 1 1 0 15.452z" style="" fill="#35696a" data-original="#35696a"></path><path d="M80.625 376.435h85.954v23.802H80.625z" style="" transform="rotate(134.999 123.603 388.338)" fill="#afc3c3" data-original="#afc3c3"></path><path d="m162.414 366.359-16.04 16.04a122.085 122.085 0 0 1-8.825-8.005 122.085 122.085 0 0 1-8.005-8.825l16.04-16.04 16.83 16.83z" style="" fill="#86a5a6" data-original="#86a5a6"></path><path d="M89.042 396.727h28.552v23.802H89.042z" style="" transform="rotate(134.999 103.32 408.63)" fill="#86a5a6" data-original="#86a5a6"></path><circle cx="224.63" cy="287.31" r="109.69" style="" fill="#385f82" data-original="#385f82"></circle><path d="M302.863 287.316c0 43.205-35.03 78.234-78.234 78.234a77.926 77.926 0 0 1-22.808-3.384 77.227 77.227 0 0 1-18.907-8.651 78.722 78.722 0 0 1-14.529-11.818 78.091 78.091 0 0 1-15.978-24.247c-3.87-9.272-6.012-19.455-6.012-30.135 0-43.205 35.03-78.234 78.234-78.234 10.68 0 20.863 2.142 30.135 6.012a78.104 78.104 0 0 1 24.246 15.978 78.756 78.756 0 0 1 11.818 14.529 77.173 77.173 0 0 1 8.651 18.907v.01a77.87 77.87 0 0 1 3.384 22.799z" style="" fill="#00d8e0" data-original="#00d8e0"></path><path d="M279.009 231.072 168.384 341.697a78.091 78.091 0 0 1-15.978-24.247l102.357-102.357a78.125 78.125 0 0 1 24.246 15.979zM299.479 264.508v.01l-97.659 97.648a77.227 77.227 0 0 1-18.907-8.651l107.914-107.914a77.193 77.193 0 0 1 8.652 18.907z" style="" fill="#98f4f4" data-original="#98f4f4"></path><path d="m117.905 436.2-28.588 28.588-10.92 10.93-32.831 32.822c-3.915 3.915-10.25 3.915-14.155 0L3.4 480.529c-3.915-3.904-3.915-10.24 0-14.155l32.832-32.822 10.92-10.93 28.588-28.577c3.904-3.915 10.24-3.915 14.155 0l28.011 28.011c3.904 3.905 3.904 10.24-.001 14.144z" style="" fill="#ddede5" data-original="#ddede5" class=""></path><path d="m70.197 483.91-24.628 24.628c-3.915 3.915-10.252 3.915-14.159.007L3.398 480.534c-3.908-3.908-3.908-10.244.007-14.159l24.628-24.628 42.164 42.163zM89.318 464.788l-10.92 10.93-42.166-42.165 10.92-10.93z" style="" fill="#86a5a6" data-original="#86a5a6"></path><path d="M421.505 427.491h-84.753a6.18 6.18 0 0 1-6.181-6.181v-32.47a6.18 6.18 0 0 1 6.181-6.181h84.753a6.18 6.18 0 0 1 6.181 6.181v32.469a6.181 6.181 0 0 1-6.181 6.182z" style="" fill="#ff4f19" data-original="#ff4f19"></path></g></svg>